0
SECTION
2
HEADER
9
$INSUNITS
70
4
9
$ACADVER
1
AC1014
9
$HANDSEED
5
FFFF
0
ENDSEC
0
SECTION
2
TABLES
0
TABLE
2
VPORT
5
8
100
AcDbSymbolTable
0
ENDTAB
0
TABLE
2
LTYPE
5
5
100
AcDbSymbolTable
0
LTYPE
5
14
100
AcDbSymbolTableRecord
100
AcDbLinetypeTableRecord
2
BYBLOCK
70
0
0
LTYPE
5
15
100
AcDbSymbolTableRecord
100
AcDbLinetypeTableRecord
2
BYLAYER
70
0
0
ENDTAB
0
TABLE
2
LAYER
5
2
100
AcDbSymbolTable
70
2
0
LAYER
5
50
100
AcDbSymbolTableRecord
100
AcDbLayerTableRecord
2
0
70
0
6
CONTINUOUS
0
ENDTAB
0
TABLE
2
STYLE
5
3
100
AcDbSymbolTable
70
1
0
STYLE
5
11
100
AcDbSymbolTableRecord
100
AcDbTextStyleTableRecord
2
STANDARD
70
0
0
ENDTAB
0
TABLE
2
VIEW
5
6
100
AcDbSymbolTable
70
0
0
ENDTAB
0
TABLE
2
UCS
5
7
100
AcDbSymbolTable
70
0
0
ENDTAB
0
TABLE
2
APPID
5
9
100
AcDbSymbolTable
70
2
0
APPID
5
12
100
AcDbSymbolTableRecord
100
AcDbRegAppTableRecord
2
ACAD
70
0
0
ENDTAB
0
TABLE
2
DIMSTYLE
5
A
100
AcDbSymbolTable
70
1
0
ENDTAB
0
TABLE
2
BLOCK_RECORD
5
1
100
AcDbSymbolTable
70
1
0
BLOCK_RECORD
5
1F
100
AcDbSymbolTableRecord
100
AcDbBlockTableRecord
2
*MODEL_SPACE
0
BLOCK_RECORD
5
1B
100
AcDbSymbolTableRecord
100
AcDbBlockTableRecord
2
*PAPER_SPACE
0
ENDTAB
0
ENDSEC
0
SECTION
2
BLOCKS
0
BLOCK
5
20
100
AcDbEntity
100
AcDbBlockBegin
2
*MODEL_SPACE
0
ENDBLK
5
21
100
AcDbEntity
100
AcDbBlockEnd
0
BLOCK
5
1C
100
AcDbEntity
100
AcDbBlockBegin
2
*PAPER_SPACE
0
ENDBLK
5
1D
100
AcDbEntity
100
AcDbBlockEnd
0
ENDSEC
0
SECTION
2
ENTITIES
0
LWPOLYLINE
5
100
100
AcDbEntity
8
0
100
AcDbPolyline
90
13
70
1
43
0.0
10
300
20
160
10
300
20
10.000000000000004
42
-0.41421356237309515
10
290
20
0
10
240.87325840485605
20
-14.036211884326828
42
-0.069687395588105522
10
198.29148358076225
20
-19.999999999999975
10
150
20
-19.999999999999996
10
101.7085164192396
20
-20.000000000000004
42
-0.069687395588118234
10
59.126741595146022
20
-14.036211884327425
10
9.9999999999999982
20
0
42
-0.41421356237309509
10
-5.1810407815840652e-15
20
10
10
8.8817841970012523e-15
20
159.99999999999997
42
-0.41421356237309498
10
10.000000000000036
20
170
10
290
20
170
42
-0.41421356237309503
0
LWPOLYLINE
5
101
100
AcDbEntity
8
0
100
AcDbPolyline
90
8
70
1
43
0.0
10
50
20
158
10
19.999999999999972
20
158
42
0.41421356237309492
10
15.000000000000007
20
153.00000000000006
10
15.000000000000007
20
143.00000000000003
42
0.41421356237309492
10
19.999999999999964
20
138.00000000000006
10
50
20
138.00000000000006
42
0.41421356237309609
10
55
20
143.00000000000006
10
55
20
153
42
0.41421356237309503
0
LWPOLYLINE
5
102
100
AcDbEntity
8
0
100
AcDbPolyline
90
8
70
1
43
0.0
10
273
20
155
10
283
20
155
42
-0.41421356237309503
10
288
20
150
10
288
20
20
42
-0.41421356237309503
10
283
20
15
10
273
20
15
42
-0.41421356237309503
10
268
20
20
10
268
20
150
42
-0.41421356237309503
0
LWPOLYLINE
5
103
100
AcDbEntity
8
0
100
AcDbPolyline
90
8
70
1
43
0.0
10
104.99999999999999
20
143.00000000000006
42
-0.41421356237309609
10
100
20
138.00000000000006
10
69.999999999999957
20
138.00000000000009
42
-0.41421356237309503
10
65
20
143.00000000000003
10
65
20
153.00000000000006
42
-0.41421356237309503
10
69.999999999999972
20
158
10
100
20
158
42
-0.41421356237309503
10
105
20
153
0
LWPOLYLINE
5
104
100
AcDbEntity
8
0
100
AcDbPolyline
90
8
70
1
43
0.0
10
154.99999999999994
20
143.00000000000006
42
-0.41421356237309609
10
149.99999999999997
20
138.00000000000006
10
119.99999999999994
20
138.00000000000006
42
-0.41421356237309398
10
114.99999999999999
20
143.00000000000003
10
115
20
153.00000000000006
42
-0.41421356237309398
10
119.99999999999994
20
158
10
149.99999999999997
20
158
42
-0.41421356237309503
10
154.99999999999997
20
153
0
LWPOLYLINE
5
105
100
AcDbEntity
8
0
100
AcDbPolyline
90
8
70
1
43
0.0
10
204.99999999999994
20
143.00000000000006
42
-0.41421356237309609
10
199.99999999999997
20
138.00000000000006
10
169.99999999999994
20
138.00000000000006
42
-0.41421356237309503
10
164.99999999999997
20
143.00000000000003
10
164.99999999999997
20
153.00000000000006
42
-0.41421356237309503
10
169.99999999999994
20
158
10
199.99999999999997
20
158
42
-0.41421356237309503
10
204.99999999999997
20
153
0
LWPOLYLINE
5
106
100
AcDbEntity
8
0
100
AcDbPolyline
90
8
70
1
43
0.0
10
254.99999999999994
20
143.00000000000006
42
-0.41421356237309609
10
249.99999999999997
20
138.00000000000006
10
219.99999999999994
20
138.00000000000006
42
-0.41421356237309503
10
214.99999999999997
20
143.00000000000003
10
214.99999999999997
20
153.00000000000006
42
-0.41421356237309503
10
219.99999999999994
20
158
10
249.99999999999997
20
158
42
-0.41421356237309503
10
254.99999999999997
20
153
0
LWPOLYLINE
5
107
100
AcDbEntity
8
0
100
AcDbPolyline
90
8
70
1
43
0.0
10
54.999999999999986
20
108.00000000000006
42
-0.41421356237309609
10
50
20
103.00000000000006
10
19.999999999999968
20
103.00000000000006
42
-0.41421356237309492
10
15.000000000000007
20
108.00000000000003
10
15.000000000000009
20
118.00000000000004
42
-0.41421356237309492
10
19.999999999999972
20
123
10
50
20
123
42
-0.41421356237309503
10
55
20
118
0
LWPOLYLINE
5
108
100
AcDbEntity
8
0
100
AcDbPolyline
90
8
70
1
43
0.0
10
104.99999999999999
20
108.00000000000006
42
-0.41421356237309609
10
100
20
103.00000000000006
10
69.999999999999957
20
103.00000000000009
42
-0.41421356237309503
10
65
20
108.00000000000003
10
65
20
118.00000000000004
42
-0.41421356237309503
10
69.999999999999972
20
123
10
100
20
123
42
-0.41421356237309503
10
105
20
118
0
LWPOLYLINE
5
109
100
AcDbEntity
8
0
100
AcDbPolyline
90
8
70
1
43
0.0
10
154.99999999999994
20
108.00000000000006
42
-0.41421356237309609
10
149.99999999999997
20
103.00000000000006
10
119.99999999999994
20
103.00000000000004
42
-0.41421356237309398
10
114.99999999999999
20
108.00000000000003
10
115
20
118.00000000000004
42
-0.41421356237309398
10
119.99999999999994
20
123
10
149.99999999999997
20
123
42
-0.41421356237309503
10
154.99999999999997
20
118
0
LWPOLYLINE
5
110
100
AcDbEntity
8
0
100
AcDbPolyline
90
8
70
1
43
0.0
10
204.99999999999994
20
108.00000000000006
42
-0.41421356237309609
10
199.99999999999997
20
103.00000000000006
10
169.99999999999994
20
103.00000000000006
42
-0.41421356237309503
10
164.99999999999997
20
108.00000000000003
10
164.99999999999997
20
118.00000000000004
42
-0.41421356237309503
10
169.99999999999994
20
123
10
199.99999999999997
20
123
42
-0.41421356237309503
10
204.99999999999997
20
118
0
LWPOLYLINE
5
111
100
AcDbEntity
8
0
100
AcDbPolyline
90
8
70
1
43
0.0
10
254.99999999999994
20
108.00000000000006
42
-0.41421356237309609
10
249.99999999999997
20
103.00000000000006
10
219.99999999999994
20
103.00000000000006
42
-0.41421356237309503
10
214.99999999999997
20
108.00000000000003
10
214.99999999999997
20
118.00000000000004
42
-0.41421356237309503
10
219.99999999999994
20
123
10
249.99999999999997
20
123
42
-0.41421356237309503
10
254.99999999999997
20
118
0
LWPOLYLINE
5
112
100
AcDbEntity
8
0
100
AcDbPolyline
90
8
70
1
43
0.0
10
54.999999999999986
20
73.000000000000057
42
-0.41421356237309609
10
50
20
68.000000000000057
10
19.999999999999968
20
68.000000000000057
42
-0.41421356237309492
10
15.000000000000007
20
73.000000000000028
10
15.000000000000009
20
83.000000000000043
42
-0.41421356237309492
10
19.999999999999972
20
88
10
50
20
88
42
-0.41421356237309503
10
55
20
83
0
LWPOLYLINE
5
113
100
AcDbEntity
8
0
100
AcDbPolyline
90
8
70
1
43
0.0
10
254.99999999999994
20
73.000000000000057
42
-0.41421356237309609
10
249.99999999999997
20
68.000000000000057
10
219.99999999999994
20
68.000000000000057
42
-0.41421356237309503
10
214.99999999999997
20
73.000000000000028
10
214.99999999999997
20
83.000000000000043
42
-0.41421356237309503
10
219.99999999999994
20
88
10
249.99999999999997
20
88
42
-0.41421356237309503
10
254.99999999999997
20
83
0
LWPOLYLINE
5
114
100
AcDbEntity
8
0
100
AcDbPolyline
90
8
70
1
43
0.0
10
174.99999999999994
20
88
10
94.999999999999972
20
88
42
0.41421356237309503
10
84.999999999999972
20
78
10
84.999999999999972
20
37.999999999999986
42
0.41421356237309503
10
94.999999999999972
20
27.999999999999989
10
174.99999999999989
20
27.999999999999989
42
0.41421356237309503
10
184.99999999999994
20
38.000000000000028
10
184.99999999999994
20
78
42
0.41421356237309503
0
LINE
5
115
100
AcDbEntity
8
0
100
AcDbLine
10
222.5
20
-7.9999999999999796
30
0
11
77.5
21
-7.9999999999999911
31
0
0
LINE
5
116
100
AcDbEntity
8
0
100
AcDbLine
10
70
20
-0.49999999999998934
30
0
11
70
21
0.49999999999999156
31
0
0
LINE
5
117
100
AcDbEntity
8
0
100
AcDbLine
10
77.500000000000014
20
8
30
0
11
230
21
7.9999999999999982
31
0
0
LINE
5
118
100
AcDbEntity
8
0
100
AcDbLine
10
230
20
-0.28740671584071897
30
0
11
230
21
-0.49999999999999156
31
0
0
LINE
5
119
100
AcDbEntity
8
0
100
AcDbLine
10
230
20
-7.9999999999999982
30
0
11
70
21
7.9999999999999982
31
0
0
LINE
5
120
100
AcDbEntity
8
0
100
AcDbLine
10
70
20
-7.9999999999999982
30
0
11
221.75372210734253
21
7.175372210734233
31
0
0
ARC
5
121
100
AcDbEntity
8
0
100
AcDbCircle
10
222.50000000000003
20
-0.50000000000001488
30
0
40
7.4999999999999645
100
AcDbArc
50
-90.000000000000199
51
0
0
ARC
5
122
100
AcDbEntity
8
0
100
AcDbCircle
10
222.49999999999997
20
-0.28740671584072675
30
0
40
7.5000000000000355
100
AcDbArc
50
0
51
95.710593137499259
0
ARC
5
123
100
AcDbEntity
8
0
100
AcDbCircle
10
77.500000000000014
20
0.49999999999999156
30
0
40
7.5000000000000089
100
AcDbArc
50
90
51
180
0
ARC
5
124
100
AcDbEntity
8
0
100
AcDbCircle
10
77.5
20
-0.49999999999999156
30
0
40
7.5
100
AcDbArc
50
180
51
270
0
ENDSEC
0
SECTION
2
OBJECTS
0
DICTIONARY
5
C
100
AcDbDictionary
3
ACAD_GROUP
350
D
3
ACAD_MLINESTYLE
350
17
0
DICTIONARY
5
D
100
AcDbDictionary
0
DICTIONARY
5
1A
330
C
100
AcDbDictionary
0
DICTIONARY
5
17
100
AcDbDictionary
0
ENDSEC
0
EOF
